<?xml version="1.0" standalone="no"?>
<!DOCTYPE svg PUBLIC "-//W3C//DTD SVG 20010904//EN"
 "http://www.w3.org/TR/2001/REC-SVG-20010904/DTD/svg10.dtd">
<svg version="1.0" xmlns="http://www.w3.org/2000/svg"
 width="800.000000pt" height="800.000000pt" viewBox="0 0 800.000000 800.000000"
 preserveAspectRatio="xMidYMid meet">

<g transform="translate(0.000000,800.000000) scale(0.100000,-0.100000)"
fill="#000000" stroke="none">
<path d="M3502 4110 c0 -14 2 -19 5 -12 2 6 2 18 0 25 -3 6 -5 1 -5 -13z"/>
<path d="M3505 4003 c3 -34 15 -85 29 -116 24 -54 92 -139 127 -158 10 -5 -4
14 -31 41 -59 61 -107 154 -120 235 l-9 60 4 -62z"/>
<path d="M3570 3765 c23 -31 41 -48 45 -43 3 2 -10 18 -27 34 -18 16 -26 20
-18 9z"/>
<path d="M3818 3650 c20 -8 22 -16 22 -80 0 -46 4 -70 11 -70 9 0 10 21 6 72
-6 70 -16 88 -47 87 -8 0 -5 -4 8 -9z"/>
<path d="M3656 3453 c-4 -12 -6 -45 -4 -73 l3 -50 62 0 c34 0 65 -4 68 -10 10
-15 35 -12 35 5 0 8 5 15 10 15 6 0 10 -36 10 -87 0 -49 4 -94 9 -101 12 -19
121 -6 121 14 0 10 -14 14 -50 14 l-50 0 0 69 c0 38 -4 81 -10 95 -9 25 -12
26 -101 26 -70 0 -90 3 -86 13 2 7 2 30 -2 52 -6 34 -8 37 -15 18z"/>
<path d="M3980 3361 c0 -7 34 -11 92 -11 50 0 89 2 87 4 -11 10 -179 16 -179
7z"/>
</g>
</svg>
